<svg width="225" height="225" viewBox="0 0 225 225" fill="none" xmlns="http://www.w3.org/2000/svg">
<rect x="140.458" y="210.354" width="13.9792" height="13.9792" fill="#D2D2D2"/>
<rect x="70.5625" y="210.354" width="13.9792" height="13.9792" fill="#D2D2D2"/>
<rect x="126.479" y="196.375" width="13.9792" height="13.9792" fill="#D2D2D2"/>
<rect x="140.458" y="196.375" width="13.9792" height="13.9792" fill="#ABABAB"/>
<rect x="154.438" y="196.375" width="13.9792" height="13.9792" fill="#D2D2D2"/>
<rect x="84.5417" y="196.375" width="13.9792" height="13.9792" fill="#D2D2D2"/>
<rect x="70.5625" y="196.375" width="13.9792" height="13.9792" fill="#6E6B66"/>
<rect x="56.5833" y="196.375" width="13.9792" height="13.9792" fill="#D2D2D2"/>
<rect x="98.5208" y="182.396" width="13.9792" height="13.9792" fill="#D2D2D2"/>
<rect x="112.5" y="182.396" width="13.9792" height="13.9792" fill="#D2D2D2"/>
<rect x="126.479" y="182.396" width="13.9792" height="13.9792" fill="#D2D2D2"/>
<rect x="140.458" y="182.396" width="13.9792" height="13.9792" fill="#ABABAB"/>
<rect x="154.438" y="182.396" width="13.9792" height="13.9792" fill="#D2D2D2"/>
<rect x="84.5417" y="182.396" width="13.9792" height="13.9792" fill="#D2D2D2"/>
<rect x="70.5625" y="182.396" width="13.9792" height="13.9792" fill="#6E6B66"/>
<rect x="56.5833" y="182.396" width="13.9792" height="13.9792" fill="#D2D2D2"/>
<rect x="98.5208" y="168.417" width="13.9792" height="13.9792" fill="#ABABAB"/>
<rect x="112.5" y="168.417" width="13.9792" height="13.9792" fill="#ABABAB"/>
<rect x="126.479" y="168.417" width="13.9792" height="13.9792" fill="#ABABAB"/>
<rect x="140.458" y="168.417" width="13.9792" height="13.9792" fill="#ABABAB"/>
<rect x="154.438" y="168.417" width="13.9792" height="13.9792" fill="#D2D2D2"/>
<rect x="84.5417" y="168.417" width="13.9792" height="13.9792" fill="#ABABAB"/>
<rect x="70.5625" y="168.417" width="13.9792" height="13.9792" fill="#6E6B66"/>
<rect x="56.5833" y="168.417" width="13.9792" height="13.9792" fill="#D2D2D2"/>
<rect x="98.5208" y="154.438" width="13.9792" height="13.9792" fill="#8A857D"/>
<rect x="112.5" y="154.438" width="13.9792" height="13.9792" fill="#6E6B66"/>
<rect x="126.479" y="154.438" width="13.9792" height="13.9792" fill="#8A857D"/>
<rect x="140.458" y="154.438" width="13.9792" height="13.9792" fill="#6E6B66"/>
<rect x="154.438" y="154.438" width="13.9792" height="13.9792" fill="#D2D2D2"/>
<rect x="84.5417" y="154.438" width="13.9792" height="13.9792" fill="#ABABAB"/>
<rect x="70.5625" y="154.438" width="13.9792" height="13.9792" fill="#6E6B66"/>
<rect x="56.5833" y="154.438" width="13.9792" height="13.9792" fill="#D2D2D2"/>
<rect x="98.5208" y="140.458" width="13.9792" height="13.9792" fill="#6E6B66"/>
<rect x="112.5" y="140.458" width="13.9792" height="13.9792" fill="#8A857D"/>
<rect x="126.479" y="140.458" width="13.9792" height="13.9792" fill="#6E6B66"/>
<rect x="140.458" y="140.458" width="13.9792" height="13.9792" fill="#8A857D"/>
<rect x="154.438" y="140.458" width="13.9792" height="13.9792" fill="#D2D2D2"/>
<rect x="84.5417" y="140.458" width="13.9792" height="13.9792" fill="#ABABAB"/>
<rect x="70.5625" y="140.458" width="13.9792" height="13.9792" fill="#6E6B66"/>
<rect x="56.5833" y="140.458" width="13.9792" height="13.9792" fill="#D2D2D2"/>
<rect x="98.5208" y="126.479" width="13.9792" height="13.9792" fill="#6E6B66"/>
<rect x="112.5" y="126.479" width="13.9792" height="13.9792" fill="#6E6B66"/>
<rect x="126.479" y="126.479" width="13.9792" height="13.9792" fill="#6E6B66"/>
<rect x="140.458" y="126.479" width="13.9792" height="13.9792" fill="#6E6B66"/>
<rect x="154.438" y="126.479" width="13.9792" height="13.9792" fill="#6E6B66"/>
<rect x="168.417" y="126.479" width="13.9792" height="13.9792" fill="#D2D2D2"/>
<rect x="42.6042" y="126.479" width="13.9792" height="13.9792" fill="#D2D2D2"/>
<rect x="84.5417" y="126.479" width="13.9792" height="13.9792" fill="#6E6B66"/>
<rect x="70.5625" y="126.479" width="13.9792" height="13.9792" fill="#6E6B66"/>
<rect x="56.5833" y="126.479" width="13.9792" height="13.9792" fill="#6E6B66"/>
<rect x="98.5208" y="112.5" width="13.9792" height="13.9792" fill="#ABABAB"/>
<rect x="112.5" y="112.5" width="13.9792" height="13.9792" fill="#ABABAB"/>
<rect x="126.479" y="112.5" width="13.9792" height="13.9792" fill="#ABABAB"/>
<rect x="140.458" y="112.5" width="13.9792" height="13.9792" fill="#ABABAB"/>
<rect x="154.438" y="112.5" width="13.9792" height="13.9792" fill="#ABABAB"/>
<rect x="168.417" y="112.5" width="13.9792" height="13.9792" fill="#ABABAB"/>
<rect x="182.396" y="112.5" width="13.9792" height="13.9792" fill="#D2D2D2"/>
<rect x="28.625" y="112.5" width="13.9792" height="13.9792" fill="#D2D2D2"/>
<rect x="42.6042" y="112.5" width="13.9792" height="13.9792" fill="#6E6B66"/>
<rect x="84.5417" y="112.5" width="13.9792" height="13.9792" fill="#ABABAB"/>
<rect x="70.5625" y="112.5" width="13.9792" height="13.9792" fill="#ABABAB"/>
<rect x="56.5833" y="112.5" width="13.9792" height="13.9792" fill="#6E6B66"/>
<rect x="98.5208" y="98.5209" width="13.9792" height="13.9792" fill="#A8BAC4"/>
<rect x="112.5" y="98.5209" width="13.9792" height="13.9792" fill="#A8BAC4"/>
<rect x="126.479" y="98.5209" width="13.9792" height="13.9792" fill="#A8BAC4"/>
<rect x="140.458" y="98.5209" width="13.9792" height="13.9792" fill="#A8BAC4"/>
<rect x="154.438" y="98.5209" width="13.9792" height="13.9792" fill="#91ACBB"/>
<rect x="168.417" y="98.5209" width="13.9792" height="13.9792" fill="#ABABAB"/>
<rect x="182.396" y="98.5209" width="13.9792" height="13.9792" fill="#D2D2D2"/>
<rect x="28.625" y="98.5209" width="13.9792" height="13.9792" fill="#D2D2D2"/>
<rect x="42.6042" y="98.5209" width="13.9792" height="13.9792" fill="#6E6B66"/>
<rect x="84.5417" y="98.5209" width="13.9792" height="13.9792" fill="#A8BAC4"/>
<rect x="70.5625" y="98.5209" width="13.9792" height="13.9792" fill="#ABABAB"/>
<rect x="56.5833" y="98.5209" width="13.9792" height="13.9792" fill="#6E6B66"/>
<rect x="98.5208" y="84.5416" width="13.9792" height="13.9792" fill="#A8BAC4"/>
<rect x="112.5" y="84.5416" width="13.9792" height="13.9792" fill="#2C2C2E"/>
<rect x="126.479" y="84.5416" width="13.9792" height="13.9792" fill="#2C2C2E"/>
<rect x="140.458" y="84.5416" width="13.9792" height="13.9792" fill="#A8BAC4"/>
<rect x="154.438" y="84.5416" width="13.9792" height="13.9792" fill="#91ACBB"/>
<rect x="168.417" y="84.5416" width="13.9792" height="13.9792" fill="#ABABAB"/>
<rect x="182.396" y="84.5416" width="13.9792" height="13.9792" fill="#D2D2D2"/>
<rect x="28.625" y="84.5416" width="13.9792" height="13.9792" fill="#D2D2D2"/>
<rect x="42.6042" y="84.5416" width="13.9792" height="13.9792" fill="#6E6B66"/>
<rect x="84.5417" y="84.5416" width="13.9792" height="13.9792" fill="#A8BAC4"/>
<rect x="70.5625" y="84.5416" width="13.9792" height="13.9792" fill="#ABABAB"/>
<rect x="56.5833" y="84.5416" width="13.9792" height="13.9792" fill="#6E6B66"/>
<rect x="98.5208" y="70.5625" width="13.9792" height="13.9792" fill="#2C2C2E"/>
<rect x="112.5" y="70.5625" width="13.9792" height="13.9792" fill="#A8BAC4"/>
<rect x="126.479" y="70.5625" width="13.9792" height="13.9792" fill="#A8BAC4"/>
<rect x="140.458" y="70.5625" width="13.9792" height="13.9792" fill="#2C2C2E"/>
<rect x="154.438" y="70.5625" width="13.9792" height="13.9792" fill="#91ACBB"/>
<rect x="168.417" y="70.5625" width="13.9792" height="13.9792" fill="#ABABAB"/>
<rect x="182.396" y="70.5625" width="13.9792" height="13.9792" fill="#D2D2D2"/>
<rect x="28.625" y="70.5625" width="13.9792" height="13.9792" fill="#D2D2D2"/>
<rect x="42.6042" y="70.5625" width="13.9792" height="13.9792" fill="#6E6B66"/>
<rect x="84.5417" y="70.5625" width="13.9792" height="13.9792" fill="#A8BAC4"/>
<rect x="70.5625" y="70.5625" width="13.9792" height="13.9792" fill="#ABABAB"/>
<rect x="56.5833" y="70.5625" width="13.9792" height="13.9792" fill="#6E6B66"/>
<rect x="98.5208" y="56.5834" width="13.9792" height="13.9792" fill="#91ACBB"/>
<rect x="112.5" y="56.5834" width="13.9792" height="13.9792" fill="#91ACBB"/>
<rect x="126.479" y="56.5834" width="13.9792" height="13.9792" fill="#91ACBB"/>
<rect x="140.458" y="56.5834" width="13.9792" height="13.9792" fill="#91ACBB"/>
<rect x="154.438" y="56.5834" width="13.9792" height="13.9792" fill="#91ACBB"/>
<rect x="168.417" y="56.5834" width="13.9792" height="13.9792" fill="#ABABAB"/>
<rect x="182.396" y="56.5834" width="13.9792" height="13.9792" fill="#D2D2D2"/>
<rect x="28.625" y="56.5834" width="13.9792" height="13.9792" fill="#D2D2D2"/>
<rect x="42.6042" y="56.5834" width="13.9792" height="13.9792" fill="#6E6B66"/>
<rect x="84.5417" y="56.5834" width="13.9792" height="13.9792" fill="#91ACBB"/>
<rect x="70.5625" y="56.5834" width="13.9792" height="13.9792" fill="#ABABAB"/>
<rect x="56.5833" y="56.5834" width="13.9792" height="13.9792" fill="#6E6B66"/>
<rect x="98.5208" y="42.6041" width="13.9792" height="13.9792" fill="#ABABAB"/>
<rect x="112.5" y="42.6041" width="13.9792" height="13.9792" fill="#ABABAB"/>
<rect x="126.479" y="42.6041" width="13.9792" height="13.9792" fill="#ABABAB"/>
<rect x="140.458" y="42.6041" width="13.9792" height="13.9792" fill="#ABABAB"/>
<rect x="154.438" y="42.6041" width="13.9792" height="13.9792" fill="#ABABAB"/>
<rect x="168.417" y="42.6041" width="13.9792" height="13.9792" fill="#ABABAB"/>
<rect x="182.396" y="42.6041" width="13.9792" height="13.9792" fill="#D2D2D2"/>
<rect x="28.625" y="42.6041" width="13.9792" height="13.9792" fill="#D2D2D2"/>
<rect x="42.6042" y="42.6041" width="13.9792" height="13.9792" fill="#6E6B66"/>
<rect x="84.5417" y="42.6041" width="13.9792" height="13.9792" fill="#ABABAB"/>
<rect x="70.5625" y="42.6041" width="13.9792" height="13.9792" fill="#ABABAB"/>
<rect x="56.5833" y="42.6041" width="13.9792" height="13.9792" fill="#6E6B66"/>
<rect x="98.5208" y="28.625" width="13.9792" height="13.9792" fill="#D2D2D2"/>
<rect x="112.5" y="28.625" width="13.9792" height="13.9792" fill="#D2D2D2"/>
<rect x="126.479" y="28.625" width="13.9792" height="13.9792" fill="#D2D2D2"/>
<rect x="140.458" y="28.625" width="13.9792" height="13.9792" fill="#D2D2D2"/>
<rect x="154.438" y="28.625" width="13.9792" height="13.9792" fill="#D2D2D2"/>
<rect x="168.417" y="28.625" width="13.9792" height="13.9792" fill="#D2D2D2"/>
<rect x="42.6042" y="28.625" width="13.9792" height="13.9792" fill="#D2D2D2"/>
<rect x="84.5417" y="28.625" width="13.9792" height="13.9792" fill="#D2D2D2"/>
<rect x="70.5625" y="28.625" width="13.9792" height="13.9792" fill="#D2D2D2"/>
<rect x="56.5833" y="28.625" width="13.9792" height="13.9792" fill="#D2D2D2"/>
<rect x="84.5417" y="14.6459" width="13.9792" height="13.9792" fill="#D2D2D2"/>
<rect x="42.6042" y="0.666626" width="13.9792" height="13.9792" fill="#D2D2D2"/>
<rect x="70.5625" y="0.666626" width="13.9792" height="13.9792" fill="#D2D2D2"/>
<rect x="56.5833" y="0.666626" width="13.9792" height="13.9792" fill="#D2D2D2"/>
</svg>
